<?xml version="1.0" encoding="UTF-8"?>
<svg width="400" height="600" xmlns="http://www.w3.org/2000/svg">
  <defs>
    <linearGradient id="grad-0ce7b306-a787-435e-94b7-ab3b91983dca" x1="0%" y1="0%" x2="100%" y2="100%">
      <stop offset="0%" style="stop-color:#0e7490;stop-opacity:1" />
      <stop offset="100%" style="stop-color:#06b6d4;stop-opacity:1" />
    </linearGradient>
    <filter id="shadow">
      <feDropShadow dx="0" dy="2" stdDeviation="3" flood-opacity="0.3"/>
    </filter>
  </defs>
  <rect width="400" height="600" fill="url(#grad-0ce7b306-a787-435e-94b7-ab3b91983dca)" />
  <g opacity="0.1">
    <circle cx="267.60037260794786" cy="556.1417456619778" r="27.642692698631066" fill="white" /><circle cx="251.98110004312807" cy="187.30760053497195" r="14.10853589160179" fill="white" /><circle cx="85.744300039552" cy="99.79056070437599" r="21.543065455764165" fill="white" /><circle cx="365.4783876061554" cy="108.56311296929377" r="18.37333124698013" fill="white" /><circle cx="252.40449401723768" cy="206.2832288410027" r="13.430194429897938" fill="white" /><circle cx="118.64100546059446" cy="94.49145430870371" r="22.891902390211772" fill="white" /><circle cx="234.43198713776968" cy="478.11848920191227" r="23.914854376707922" fill="white" /><circle cx="354.7490885316272" cy="443.25062670771797" r="12.182176764854269" fill="white" /><circle cx="242.48481947043481" cy="4.278838928236661" r="24.981317865947155" fill="white" /><circle cx="37.90138481420264" cy="245.98816469280973" r="13.167725431032427" fill="white" /><circle cx="167.52744527758892" cy="293.7539753311371" r="19.93353703307716" fill="white" /><circle cx="304.18270842544655" cy="583.0724909801937" r="22.970408466031987" fill="white" /><circle cx="212.3358177306991" cy="459.601156591999" r="10.61536375541994" fill="white" /><circle cx="322.8496099640797" cy="137.70117417336948" r="12.316515240589474" fill="white" /><circle cx="42.080556886537494" cy="72.99986568089119" r="23.9342420835748" fill="white" /><circle cx="328.07362811731696" cy="521.2481075310362" r="10.55525310842652" fill="white" /><circle cx="184.3538605619885" cy="334.0889443898271" r="15.589508386189586" fill="white" /><circle cx="66.23110238284036" cy="229.74858729109695" r="27.11241859405118" fill="white" /><circle cx="254.47416823737322" cy="346.00889080939515" r="14.949543607903506" fill="white" /><circle cx="85.50618184002742" cy="502.4592785652561" r="21.13803012565058" fill="white" />
  </g>
  <g filter="url(#shadow)">
    
      <text x="200" y="120" 
            font-family="Arial, sans-serif" font-size="36" font-weight="bold" fill="white" text-anchor="middle">
        Blink
      </text>
  </g>
  <g filter="url(#shadow)">
    
      <text x="200" y="480" 
            font-family="Arial, sans-serif" font-size="22" fill="#67e8f9" text-anchor="middle">
        Malcolm Gladwell
      </text>
  </g>
  <g>
    <rect x="20" y="20" width="150" height="35" rx="17.5" fill="rgba(255,255,255,0.2)" />
    <text x="95" y="42" 
          font-family="Arial, sans-serif" font-size="14" font-weight="bold" fill="white" text-anchor="middle">
      PSYCHOLOGY
    </text>
  </g>
  <rect x="0" y="590" width="400" height="10" fill="#06b6d4" opacity="0.8" />
</svg>