<?xml version="1.0" encoding="UTF-8"?>
<svg width="400" height="600" xmlns="http://www.w3.org/2000/svg">
  <defs>
    <linearGradient id="grad-105c3e9d-0c06-4150-8a5e-7205a7b2d1a2" x1="0%" y1="0%" x2="100%" y2="100%">
      <stop offset="0%" style="stop-color:#1e3a8a;stop-opacity:1" />
      <stop offset="100%" style="stop-color:#3b82f6;stop-opacity:1" />
    </linearGradient>
    <filter id="shadow">
      <feDropShadow dx="0" dy="2" stdDeviation="3" flood-opacity="0.3"/>
    </filter>
  </defs>
  <rect width="400" height="600" fill="url(#grad-105c3e9d-0c06-4150-8a5e-7205a7b2d1a2)" />
  <g opacity="0.1">
    <circle cx="252.217574600664" cy="495.08035345921104" r="25.42410544342227" fill="white" /><circle cx="187.43588358864466" cy="140.1522543275629" r="23.005461490294874" fill="white" /><circle cx="183.68601356289074" cy="167.66907549333942" r="27.626640383098547" fill="white" /><circle cx="50.88021876832354" cy="273.83427932292915" r="20.13689955254619" fill="white" /><circle cx="230.53438190558109" cy="283.53627325112154" r="16.190451721770806" fill="white" /><circle cx="110.68594177755968" cy="517.3324465698082" r="15.9108729825047" fill="white" /><circle cx="181.0734221607002" cy="442.152608817645" r="27.587764694844033" fill="white" /><circle cx="384.93917805975826" cy="412.79916671705837" r="28.00099045115591" fill="white" /><circle cx="96.91488301590354" cy="205.47026836456737" r="22.288761035584756" fill="white" /><circle cx="388.358220910515" cy="325.9473275858108" r="17.40629953632152" fill="white" /><circle cx="278.75091577312696" cy="1.0496324430215642" r="14.998694788074689" fill="white" /><circle cx="27.98667817866467" cy="10.682928546311143" r="15.908361363945575" fill="white" /><circle cx="180.13214743283385" cy="563.5347714219743" r="15.029146106903639" fill="white" /><circle cx="179.6624069722278" cy="560.3550815101341" r="20.0793841193892" fill="white" /><circle cx="154.4935250550017" cy="553.953485118938" r="19.779770258622946" fill="white" /><circle cx="271.42020403485714" cy="127.88857688530955" r="12.709273635713508" fill="white" /><circle cx="54.53787871674298" cy="595.4169268504961" r="17.119394613423655" fill="white" /><circle cx="309.32089702456176" cy="215.35590436520994" r="12.571660866930067" fill="white" /><circle cx="290.4279594948121" cy="439.1295529190843" r="18.627360881554928" fill="white" /><circle cx="82.50803388436299" cy="346.33489513625403" r="16.12243392820149" fill="white" />
  </g>
  <g filter="url(#shadow)">
    
      <text x="200" y="120" 
            font-family="Arial, sans-serif" font-size="36" font-weight="bold" fill="white" text-anchor="middle">
        Good to Great
      </text>
  </g>
  <g filter="url(#shadow)">
    
      <text x="200" y="480" 
            font-family="Arial, sans-serif" font-size="22" fill="#60a5fa" text-anchor="middle">
        Jim Collins
      </text>
  </g>
  <g>
    <rect x="20" y="20" width="126" height="35" rx="17.5" fill="rgba(255,255,255,0.2)" />
    <text x="83" y="42" 
          font-family="Arial, sans-serif" font-size="14" font-weight="bold" fill="white" text-anchor="middle">
      BUSINESS
    </text>
  </g>
  <rect x="0" y="590" width="400" height="10" fill="#3b82f6" opacity="0.8" />
</svg>