<?xml version="1.0" encoding="UTF-8"?>
<svg width="400" height="600" xmlns="http://www.w3.org/2000/svg">
  <defs>
    <linearGradient id="grad-c01d6d52-00df-4b0f-a090-c8ec37897ce0" x1="0%" y1="0%" x2="100%" y2="100%">
      <stop offset="0%" style="stop-color:#1e3a8a;stop-opacity:1" />
      <stop offset="100%" style="stop-color:#3b82f6;stop-opacity:1" />
    </linearGradient>
    <filter id="shadow">
      <feDropShadow dx="0" dy="2" stdDeviation="3" flood-opacity="0.3"/>
    </filter>
  </defs>
  <rect width="400" height="600" fill="url(#grad-c01d6d52-00df-4b0f-a090-c8ec37897ce0)" />
  <g opacity="0.1">
    <circle cx="225.22297453937114" cy="342.129384549619" r="18.659905037126354" fill="white" /><circle cx="136.99305812910717" cy="545.6769216933684" r="18.783512160244975" fill="white" /><circle cx="291.2852352163346" cy="216.5889921810829" r="20.597754434117626" fill="white" /><circle cx="21.325628164332542" cy="197.56320964971144" r="29.067739676677554" fill="white" /><circle cx="290.8443977078683" cy="551.5562042779737" r="29.38176789675064" fill="white" /><circle cx="80.37367466817433" cy="153.93895212047988" r="27.224065499966834" fill="white" /><circle cx="312.4320198181469" cy="212.6619282870021" r="24.127357393601702" fill="white" /><circle cx="121.84518046248782" cy="513.5750865738366" r="21.992209100694176" fill="white" /><circle cx="261.77677608332857" cy="127.19607585101289" r="18.359992455770104" fill="white" /><circle cx="80.85043113212436" cy="339.13884984172387" r="22.322526562190397" fill="white" /><circle cx="8.098651497543186" cy="328.3877191691206" r="13.17584426682739" fill="white" /><circle cx="318.8842968407582" cy="82.4788412545322" r="25.29908222097626" fill="white" /><circle cx="128.05884798413828" cy="485.8101628902852" r="18.955151849157716" fill="white" /><circle cx="365.02133989276655" cy="516.2852725364744" r="18.69163597547815" fill="white" /><circle cx="365.6607793741247" cy="183.9571090098859" r="10.10152016956031" fill="white" /><circle cx="119.17090480382413" cy="123.07029782128534" r="21.316444651456163" fill="white" /><circle cx="313.1733619063878" cy="405.0556150437069" r="14.720872275716765" fill="white" /><circle cx="80.35491180095362" cy="76.8333568560769" r="11.513357171639989" fill="white" /><circle cx="81.88300280678394" cy="494.39120007365796" r="11.122741483033177" fill="white" /><circle cx="139.59047905565112" cy="580.9088679469711" r="18.031687217383112" fill="white" />
  </g>
  <g filter="url(#shadow)">
    
      <text x="200" y="120" 
            font-family="Arial, sans-serif" font-size="36" font-weight="bold" fill="white" text-anchor="middle">
        Die Kunst der Verführung
      </text>
  </g>
  <g filter="url(#shadow)">
    
      <text x="200" y="480" 
            font-family="Arial, sans-serif" font-size="22" fill="#60a5fa" text-anchor="middle">
        Robert Greene
      </text>
  </g>
  <g>
    <rect x="20" y="20" width="138" height="35" rx="17.5" fill="rgba(255,255,255,0.2)" />
    <text x="89" y="42" 
          font-family="Arial, sans-serif" font-size="14" font-weight="bold" fill="white" text-anchor="middle">
      SELF-HELP
    </text>
  </g>
  <rect x="0" y="590" width="400" height="10" fill="#3b82f6" opacity="0.8" />
</svg>