<?xml version="1.0" encoding="UTF-8"?>
<svg width="400" height="600" xmlns="http://www.w3.org/2000/svg">
  <defs>
    <linearGradient id="grad-d82efe01-23ed-4c34-81dd-180a601ed169" x1="0%" y1="0%" x2="100%" y2="100%">
      <stop offset="0%" style="stop-color:#1e3a8a;stop-opacity:1" />
      <stop offset="100%" style="stop-color:#3b82f6;stop-opacity:1" />
    </linearGradient>
    <filter id="shadow">
      <feDropShadow dx="0" dy="2" stdDeviation="3" flood-opacity="0.3"/>
    </filter>
  </defs>
  <rect width="400" height="600" fill="url(#grad-d82efe01-23ed-4c34-81dd-180a601ed169)" />
  <g opacity="0.1">
    <circle cx="6.479269250912356" cy="104.16912813801152" r="22.512511094080452" fill="white" /><circle cx="302.6655342299207" cy="442.58908255754136" r="18.59604376737559" fill="white" /><circle cx="252.22370396167557" cy="229.52790367978935" r="15.881298890069921" fill="white" /><circle cx="87.90889138739759" cy="582.2684915963904" r="20.40626828671116" fill="white" /><circle cx="275.53490643322374" cy="336.50148370152084" r="23.752118495890812" fill="white" /><circle cx="0.5144714845640053" cy="295.55345576740206" r="28.27411792846845" fill="white" /><circle cx="279.06046610732807" cy="139.09974400668625" r="27.372821193390106" fill="white" /><circle cx="257.8323960341218" cy="455.6310455960905" r="29.031492667203814" fill="white" /><circle cx="332.262844842999" cy="409.2356827979032" r="21.989476413350836" fill="white" /><circle cx="359.916726072483" cy="426.08297771565316" r="18.957739185855125" fill="white" /><circle cx="324.73292513130446" cy="72.14460178449937" r="27.629471278780176" fill="white" /><circle cx="179.05309460488098" cy="523.9619707906189" r="29.00655595929173" fill="white" /><circle cx="113.93959004052104" cy="519.6502732336972" r="14.036046629387018" fill="white" /><circle cx="255.9276248951451" cy="298.7185237130242" r="12.566377677977785" fill="white" /><circle cx="192.52052988975205" cy="352.6691295932932" r="26.263938521863842" fill="white" /><circle cx="123.92530610867686" cy="65.72259759776158" r="22.606220115899777" fill="white" /><circle cx="209.64442407338333" cy="409.1904071815112" r="16.17454625383997" fill="white" /><circle cx="1.8303336035863538" cy="102.80101764904043" r="23.4186351411801" fill="white" /><circle cx="330.3501284582219" cy="249.55230285626104" r="25.996342802749407" fill="white" /><circle cx="311.24979882328427" cy="326.2421252456912" r="11.521430904693853" fill="white" />
  </g>
  <g filter="url(#shadow)">
    
      <text x="200" y="120" 
            font-family="Arial, sans-serif" font-size="36" font-weight="bold" fill="white" text-anchor="middle">
        Jab, Jab, Jab, Right Hook
      </text>
  </g>
  <g filter="url(#shadow)">
    
      <text x="200" y="480" 
            font-family="Arial, sans-serif" font-size="22" fill="#60a5fa" text-anchor="middle">
        Gary Vaynerchuk
      </text>
  </g>
  <g>
    <rect x="20" y="20" width="126" height="35" rx="17.5" fill="rgba(255,255,255,0.2)" />
    <text x="83" y="42" 
          font-family="Arial, sans-serif" font-size="14" font-weight="bold" fill="white" text-anchor="middle">
      BUSINESS
    </text>
  </g>
  <rect x="0" y="590" width="400" height="10" fill="#3b82f6" opacity="0.8" />
</svg>