<?xml version="1.0" encoding="UTF-8"?>
<svg width="400" height="600" xmlns="http://www.w3.org/2000/svg">
  <defs>
    <linearGradient id="grad-dce3c48c-9d70-4fe1-89b9-edb941ef83dd" x1="0%" y1="0%" x2="100%" y2="100%">
      <stop offset="0%" style="stop-color:#0e7490;stop-opacity:1" />
      <stop offset="100%" style="stop-color:#06b6d4;stop-opacity:1" />
    </linearGradient>
    <filter id="shadow">
      <feDropShadow dx="0" dy="2" stdDeviation="3" flood-opacity="0.3"/>
    </filter>
  </defs>
  <rect width="400" height="600" fill="url(#grad-dce3c48c-9d70-4fe1-89b9-edb941ef83dd)" />
  <g opacity="0.1">
    <circle cx="132.91674544425263" cy="428.0591332400924" r="28.59914077110138" fill="white" /><circle cx="211.0050141301631" cy="137.2142548402522" r="20.56058223056647" fill="white" /><circle cx="10.787951062045886" cy="34.382168774739206" r="19.161125394135283" fill="white" /><circle cx="53.239600729025184" cy="594.3982363131571" r="13.53990542473269" fill="white" /><circle cx="276.9189540134052" cy="311.6958686705246" r="23.0304016457366" fill="white" /><circle cx="311.5754077902918" cy="383.0387421324198" r="15.706491889930339" fill="white" /><circle cx="57.122221387957595" cy="441.1848177358337" r="11.057764489436774" fill="white" /><circle cx="37.1191334844784" cy="467.599072434443" r="12.503568979738164" fill="white" /><circle cx="86.7300421060071" cy="514.4543264173168" r="12.909042325257987" fill="white" /><circle cx="267.91111636742346" cy="313.71295775526045" r="16.02303597810576" fill="white" /><circle cx="395.8869557128332" cy="553.6217709366214" r="28.403673125192718" fill="white" /><circle cx="178.92811096167605" cy="406.67203941437384" r="18.986226730285757" fill="white" /><circle cx="340.23656980520053" cy="66.68570378143708" r="20.916364919734622" fill="white" /><circle cx="253.699789492391" cy="586.5057583490036" r="10.909870451047167" fill="white" /><circle cx="350.79160055224156" cy="530.75659535294" r="27.872366664864604" fill="white" /><circle cx="332.712880218796" cy="60.05531522557459" r="22.22150878162664" fill="white" /><circle cx="250.7573674523894" cy="551.2993698487863" r="14.137581584023238" fill="white" /><circle cx="177.69997985207024" cy="349.7470961306677" r="16.06579461280486" fill="white" /><circle cx="202.58886091584176" cy="311.0957825700524" r="20.85794683123131" fill="white" /><circle cx="398.46197183819515" cy="599.1920142472777" r="16.22462107856045" fill="white" />
  </g>
  <g filter="url(#shadow)">
    
      <text x="200" y="120" 
            font-family="Arial, sans-serif" font-size="36" font-weight="bold" fill="white" text-anchor="middle">
        The Righteous Mind
      </text>
  </g>
  <g filter="url(#shadow)">
    
      <text x="200" y="480" 
            font-family="Arial, sans-serif" font-size="22" fill="#67e8f9" text-anchor="middle">
        Jonathan Haidt
      </text>
  </g>
  <g>
    <rect x="20" y="20" width="150" height="35" rx="17.5" fill="rgba(255,255,255,0.2)" />
    <text x="95" y="42" 
          font-family="Arial, sans-serif" font-size="14" font-weight="bold" fill="white" text-anchor="middle">
      PSYCHOLOGY
    </text>
  </g>
  <rect x="0" y="590" width="400" height="10" fill="#06b6d4" opacity="0.8" />
</svg>