<?xml version="1.0" encoding="UTF-8"?>
<svg width="400" height="600" xmlns="http://www.w3.org/2000/svg">
  <defs>
    <linearGradient id="grad-e6156973-00f0-4a0a-be4e-086c3a58b577" x1="0%" y1="0%" x2="100%" y2="100%">
      <stop offset="0%" style="stop-color:#1e3a8a;stop-opacity:1" />
      <stop offset="100%" style="stop-color:#3b82f6;stop-opacity:1" />
    </linearGradient>
    <filter id="shadow">
      <feDropShadow dx="0" dy="2" stdDeviation="3" flood-opacity="0.3"/>
    </filter>
  </defs>
  <rect width="400" height="600" fill="url(#grad-e6156973-00f0-4a0a-be4e-086c3a58b577)" />
  <g opacity="0.1"><circle cx="369.6383515762413" cy="59.21384679415542" r="25.40330455623029" fill="white" /><circle cx="300.9521061450171" cy="278.20617758780554" r="11.319188195518207" fill="white" /><circle cx="99.76231335313716" cy="145.4106378904765" r="16.588717303470567" fill="white" /><circle cx="22.630233344425132" cy="5.583167908129805" r="21.008297214196354" fill="white" /><circle cx="103.9832018395523" cy="109.75898823191905" r="23.580271616079358" fill="white" /><circle cx="295.63881125248366" cy="596.3765095656831" r="11.906295671648838" fill="white" /><circle cx="360.38475049988506" cy="353.5813384096453" r="21.570532064783237" fill="white" /><circle cx="393.80545594014967" cy="64.47883497066395" r="29.364164027787037" fill="white" /><circle cx="314.45208292066866" cy="531.594147217353" r="21.531869698815356" fill="white" /><circle cx="244.48499329424624" cy="557.5520670044201" r="16.437805034100943" fill="white" /><circle cx="146.24914566357336" cy="329.86310811662673" r="19.417323262256776" fill="white" /><circle cx="0.040719694265245465" cy="188.7645118005651" r="20.81867898778801" fill="white" /><circle cx="109.3579111721894" cy="341.35997541281097" r="22.675129085731868" fill="white" /><circle cx="355.0780208138408" cy="116.91737944544688" r="28.56069623777733" fill="white" /><circle cx="269.5012301284478" cy="13.090844216663333" r="20.963874214537956" fill="white" /><circle cx="173.74619970898323" cy="393.13432709638494" r="24.106310568812688" fill="white" /><circle cx="3.6235841711228733" cy="508.4352801155549" r="24.89822004037952" fill="white" /><circle cx="221.89907587530448" cy="104.46096252468924" r="22.86504274461104" fill="white" /><circle cx="320.51144933583527" cy="391.1425931666994" r="12.189904374699578" fill="white" /><circle cx="342.95346170688606" cy="228.61595049620678" r="12.90513425921259" fill="white" /></g>
  <g filter="url(#shadow)">
    <text x="200" y="120" font-family="Arial, sans-serif" font-size="36" font-weight="bold" fill="white" text-anchor="middle">The Telomere Effect</text>
  </g>
  <g filter="url(#shadow)">
    <text x="200" y="480" font-family="Arial, sans-serif" font-size="22" fill="#60a5fa" text-anchor="middle">Elizabeth Blackburn</text>
  </g>
  <g>
    <rect x="20" y="20" width="102" height="35" rx="17.5" fill="rgba(255,255,255,0.2)" />
    <text x="71" y="42" font-family="Arial, sans-serif" font-size="14" font-weight="bold" fill="white" text-anchor="middle">HEALTH</text>
  </g>
  <rect x="0" y="590" width="400" height="10" fill="#3b82f6" opacity="0.8" />
</svg>