<?xml version="1.0" encoding="UTF-8"?>
<svg width="400" height="600" xmlns="http://www.w3.org/2000/svg">
  <defs>
    <linearGradient id="grad-f595111e-1476-4457-aebc-47ceeefbb022" x1="0%" y1="0%" x2="100%" y2="100%">
      <stop offset="0%" style="stop-color:#1e3a8a;stop-opacity:1" />
      <stop offset="100%" style="stop-color:#3b82f6;stop-opacity:1" />
    </linearGradient>
    <filter id="shadow">
      <feDropShadow dx="0" dy="2" stdDeviation="3" flood-opacity="0.3"/>
    </filter>
  </defs>
  <rect width="400" height="600" fill="url(#grad-f595111e-1476-4457-aebc-47ceeefbb022)" />
  <g opacity="0.1">
    <circle cx="90.23032752542836" cy="529.898269824503" r="29.86259733872374" fill="white" /><circle cx="369.1052407149813" cy="55.09286081184794" r="10.941681784693438" fill="white" /><circle cx="290.35247012469483" cy="56.12966777016697" r="10.87237750221197" fill="white" /><circle cx="82.73392471850852" cy="12.568990845624683" r="21.183802471821814" fill="white" /><circle cx="231.62308303194027" cy="337.1839700578835" r="27.86358594222111" fill="white" /><circle cx="210.4912723973272" cy="332.4790432461419" r="28.428363507245294" fill="white" /><circle cx="130.2474598182508" cy="192.027634011965" r="20.314463439403024" fill="white" /><circle cx="232.58053086570536" cy="66.4991890555734" r="18.625423674277364" fill="white" /><circle cx="206.19001124189023" cy="554.6015742768167" r="10.183595242517448" fill="white" /><circle cx="77.5523601758553" cy="208.0584825694853" r="20.639798355693422" fill="white" /><circle cx="22.706883864768024" cy="552.4434632774329" r="14.273256841667658" fill="white" /><circle cx="80.35287529526207" cy="175.60074158080573" r="14.6053129756102" fill="white" /><circle cx="336.2794233768151" cy="49.798105180000675" r="21.390348261221433" fill="white" /><circle cx="298.7158886808103" cy="313.1608965296444" r="21.655947412443908" fill="white" /><circle cx="390.70272047757635" cy="226.45876844391864" r="20.442810349363846" fill="white" /><circle cx="65.78935667551211" cy="490.572273449825" r="25.123956750728173" fill="white" /><circle cx="10.748295154704035" cy="265.61556182896544" r="10.212148325603668" fill="white" /><circle cx="198.94547698815023" cy="15.613995670006942" r="13.841751300163665" fill="white" /><circle cx="218.8704363233707" cy="482.57463747134915" r="29.366301801887886" fill="white" /><circle cx="17.95202223012442" cy="259.8586729508343" r="21.410174292353243" fill="white" />
  </g>
  <g filter="url(#shadow)">
    
      <text x="200" y="120" 
            font-family="Arial, sans-serif" font-size="36" font-weight="bold" fill="white" text-anchor="middle">
        Better Than Before
      </text>
  </g>
  <g filter="url(#shadow)">
    
      <text x="200" y="480" 
            font-family="Arial, sans-serif" font-size="22" fill="#60a5fa" text-anchor="middle">
        Gretchen Rubin
      </text>
  </g>
  <g>
    <rect x="20" y="20" width="138" height="35" rx="17.5" fill="rgba(255,255,255,0.2)" />
    <text x="89" y="42" 
          font-family="Arial, sans-serif" font-size="14" font-weight="bold" fill="white" text-anchor="middle">
      SELF-HELP
    </text>
  </g>
  <rect x="0" y="590" width="400" height="10" fill="#3b82f6" opacity="0.8" />
</svg>